<?xml version="1.0" encoding="UTF-8" standalone="no"?>
<!-- Created with Inkscape (http://www.inkscape.org/) -->
<svg
   xmlns:svg="http://www.w3.org/2000/svg"
   xmlns="http://www.w3.org/2000/svg"
   version="1.0"
   width="744.09448"
   height="1052.3622"
   id="svg2">
  <defs
     id="defs4">
    <marker
       refX="0"
       refY="0"
       orient="auto"
       style="overflow:visible"
       id="Arrow2Lend">
      <path
         d="M 8.7185878,4.0337352 L -2.2072895,0.016013256 L 8.7185884,-4.0017078 C 6.97309,-1.6296469 6.9831476,1.6157441 8.7185878,4.0337352 z "
         transform="matrix(-1.1,0,0,-1.1,-1.1,0)"
         style="font-size:12px;fill-rule:evenodd;stroke-width:0.625;stroke-linejoin:round"
         id="path18720" />
    </marker>
    <marker
       refX="0"
       refY="0"
       orient="auto"
       style="overflow:visible"
       id="Arrow1Mstart">
      <path
         d="M 0,0 L 5,-5 L -12.5,0 L 5,5 L 0,0 z "
         transform="matrix(0.4,0,0,0.4,4,0)"
         style="fill-rule:evenodd;stroke:#000000;stroke-width:1pt;marker-start:none"
         id="path18705" />
    </marker>
    <marker
       refX="0"
       refY="0"
       orient="auto"
       style="overflow:visible"
       id="Arrow2Mstart">
      <path
         d="M 8.7185878,4.0337352 L -2.2072895,0.016013256 L 8.7185884,-4.0017078 C 6.97309,-1.6296469 6.9831476,1.6157441 8.7185878,4.0337352 z "
         transform="scale(0.6,0.6)"
         style="font-size:12px;fill-rule:evenodd;stroke-width:0.625;stroke-linejoin:round"
         id="path18723" />
    </marker>
    <marker
       refX="0"
       refY="0"
       orient="auto"
       style="overflow:visible"
       id="Arrow2Mend">
      <path
         d="M 8.7185878,4.0337352 L -2.2072895,0.016013256 L 8.7185884,-4.0017078 C 6.97309,-1.6296469 6.9831476,1.6157441 8.7185878,4.0337352 z "
         transform="scale(-0.6,-0.6)"
         style="font-size:12px;fill-rule:evenodd;stroke-width:0.625;stroke-linejoin:round"
         id="path18726" />
    </marker>
  </defs>
  <g
     id="layer1">
    <path
       d="M 479.28571 614.86218 A 165.35715 179.64285 0 1 1  148.57141,614.86218 A 165.35715 179.64285 0 1 1  479.28571 614.86218 z"
       transform="matrix(0.9021547,0,0,0.8304129,14.40927,134.86561)"
       style="opacity:1;fill:none;fill-opacity:1;fill-rule:nonzero;stroke:#000000;stroke-width:1.89999998;stroke-miterlimit:4;stroke-dasharray:none;stroke-dashoffset:0;stroke-opacity:1"
       id="path2160" />
    <path
       d="M 191.93192,659.00238 A 128.79445,51.265244 0 1 1 449.09486,662.80672"
       transform="matrix(1.1582668,0,0,0.9986014,-74.097989,-8.3180879)"
       style="opacity:1;fill:none;fill-opacity:1;fill-rule:nonzero;stroke:#000000;stroke-width:0.74385726;stroke-miterlimit:4;stroke-dasharray:2.23157174, 2.23157174;stroke-dashoffset:0;stroke-opacity:1"
       id="path3134" />
    <path
       d="M 323.71549,787.65472 A 46.719555,138.3909 0 1 1 323.27623,510.93998"
       transform="matrix(1.8936411,0,0,1.0754081,-313.95031,-53.508982)"
       style="opacity:1;fill:none;fill-opacity:1;fill-rule:nonzero;stroke:#000000;stroke-width:0.56060183;stroke-miterlimit:4;stroke-dasharray:1.68180545, 1.68180545;stroke-dashoffset:0;stroke-opacity:1"
       id="path4107" />
    <path
       d="M 449.51787,658.65521 A 128.79445,51.265244 0 0 1 191.95178,659.61994"
       transform="matrix(1.1582668,0,0,0.9986014,-73.993364,-8.4227)"
       style="opacity:1;fill:none;fill-opacity:1;fill-rule:nonzero;stroke:#000000;stroke-width:0.74385726;stroke-miterlimit:4;stroke-dasharray:none;stroke-dashoffset:0;stroke-opacity:1"
       id="path4111" />
    <path
       d="M 321.99478,510.92825 A 46.719555,138.3909 0 1 1 320.41706,787.56579"
       transform="matrix(1.8936411,0,0,1.0754081,-314.20284,-53.509044)"
       style="opacity:1;fill:none;fill-opacity:1;fill-rule:nonzero;stroke:#000000;stroke-width:0.56060183;stroke-miterlimit:4;stroke-dasharray:none;stroke-dashoffset:0;stroke-opacity:1"
       id="path5086" />
    <path
       d="M 302.54069 647.03845 A 3.2829957 2.2728431 0 1 1  295.97469,647.03845 A 3.2829957 2.2728431 0 1 1  302.54069 647.03845 z"
       transform="matrix(0.3779261,0,0,0.5458932,183.8066,295.16821)"
       style="opacity:1;fill:#000000;fill-opacity:1;fill-rule:nonzero;stroke:#000000;stroke-width:1.14163029;stroke-miterlimit:4;stroke-dasharray:none;stroke-dashoffset:0;stroke-opacity:1"
       id="path6057" />
    <path
       d="M 379.81736,692.74788 L 296.47977,648.30116 L 369.71583,562.94327"
       style="fill:none;fill-rule:evenodd;stroke:#000000;stroke-width:0.69999999;stroke-linecap:butt;stroke-linejoin:miter;stroke-miterlimit:4;stroke-dasharray:2.09999996, 2.09999996;stroke-dashoffset:0;stroke-opacity:1"
       id="path7028" />
    <text
       x="277.34778"
       y="665.93817"
       style="font-size:16px;font-style:normal;font-weight:normal;fill:#000000;fill-opacity:1;stroke:none;stroke-width:1px;stroke-linecap:butt;stroke-linejoin:miter;stroke-opacity:1;font-family:Bitstream Vera Sans"
       id="text7030"
       xml:space="preserve"><tspan
         x="277.34778"
         y="665.93817"
         id="tspan7032">o</tspan></text>
    <path
       d="M 305.06607,637.69456 C 309.61176,646.78594 305.06607,652.34177 305.06607,652.34177"
       style="fill:none;fill-rule:evenodd;stroke:#000000;stroke-width:0.30000001;stroke-linecap:butt;stroke-linejoin:miter;stroke-miterlimit:4;stroke-dasharray:none;stroke-opacity:1"
       id="path7040" />
    <text
       x="314.15744"
       y="646.78595"
       style="font-size:16px;font-style:normal;font-weight:normal;fill:#000000;fill-opacity:1;stroke:none;stroke-width:1px;stroke-linecap:butt;stroke-linejoin:miter;stroke-opacity:1;font-family:Bitstream Vera Sans"
       id="text7042"
       xml:space="preserve"><tspan
         x="314.15744"
         y="646.78595"
         id="tspan7044">phi</tspan></text>
    <path
       d="M 377.76786,570.04076 L 386.96429,603.88004"
       style="fill:none;fill-rule:evenodd;stroke:#000000;stroke-width:1px;stroke-linecap:butt;stroke-linejoin:miter;marker-end:url(#Arrow2Mend);stroke-opacity:1"
       id="path16756" />
    <text
       x="381.07144"
       y="578.79077"
       style="font-size:16px;font-style:normal;font-weight:normal;fill:#000000;fill-opacity:1;stroke:none;stroke-width:1px;stroke-linecap:butt;stroke-linejoin:miter;stroke-opacity:1;font-family:Bitstream Vera Sans"
       id="text18894"
       xml:space="preserve"><tspan
         x="381.07144"
         y="578.79077"
         id="tspan18896">v</tspan></text>
    <path
       d="M 296.9618,794.33286 L 296.9618,496.18598"
       style="fill:none;fill-rule:evenodd;stroke:#000000;stroke-width:0.73335022;stroke-linecap:butt;stroke-linejoin:miter;marker-end:none;stroke-miterlimit:4;stroke-dasharray:2.20005074, 2.20005074;stroke-dashoffset:0;stroke-opacity:1"
       id="path18898" />
    <path
       d="M 303.58104,473.19422 A 13.058017,3.5355339 0 1 1 294.97323,473.2861"
       transform="translate(-2.7548959,7.54396)"
       style="opacity:1;fill:none;fill-opacity:1;fill-rule:nonzero;stroke:#000000;stroke-width:0.80000001;marker-start:url(#Arrow1Mstart);marker-end:none;stroke-miterlimit:4;stroke-dasharray:none;stroke-dashoffset:0;stroke-opacity:1"
       id="path19869" />
    <text
       x="306.32877"
       y="475.56509"
       style="font-size:16px;font-style:normal;font-weight:normal;fill:#000000;fill-opacity:1;stroke:none;stroke-width:1px;stroke-linecap:butt;stroke-linejoin:miter;stroke-opacity:1;font-family:Bitstream Vera Sans"
       id="text21821"
       xml:space="preserve"><tspan
         x="306.32877"
         y="475.56509"
         id="tspan21823" /></text>
    <text
       x="312.62192"
       y="487.39377"
       style="font-size:16px;font-style:normal;font-weight:normal;fill:#000000;fill-opacity:1;stroke:none;stroke-width:1px;stroke-linecap:butt;stroke-linejoin:miter;stroke-opacity:1;font-family:Bitstream Vera Sans"
       id="text21825"
       xml:space="preserve"><tspan
         x="312.62192"
         y="487.39377"
         id="tspan21827">w</tspan></text>
    <path
       d="M 377.72321 561.51398 A 3.90625 3.0357144 0 1 1  369.91071,561.51398 A 3.90625 3.0357144 0 1 1  377.72321 561.51398 z"
       transform="matrix(0.5733955,0,0,0.737825,157.26397,144.84706)"
       style="opacity:1;fill:#000000;fill-opacity:1;fill-rule:nonzero;stroke:#000000;stroke-width:0.80000001;stroke-miterlimit:4;stroke-dasharray:none;stroke-dashoffset:0;stroke-opacity:1"
       id="path21829" />
    <path
       d="M 377.72321 561.51398 A 3.90625 3.0357144 0 1 1  369.91071,561.51398 A 3.90625 3.0357144 0 1 1  377.72321 561.51398 z"
       transform="matrix(0.5733955,0,0,0.737825,160.16397,151.58992)"
       style="opacity:1;fill:#000000;fill-opacity:1;fill-rule:nonzero;stroke:#000000;stroke-width:0.80000001;stroke-miterlimit:4;stroke-dasharray:none;stroke-dashoffset:0;stroke-opacity:1"
       id="path21831" />
    <path
       d="M 372.23214,554.68361 L 377.85714,567.98718 L 380.3125,567.22825 L 373.61607,552.98718 L 371.65179,553.8354 L 372.23214,554.68361 z "
       style="fill:#000000;fill-opacity:1;fill-rule:evenodd;stroke:#000000;stroke-width:1px;stroke-linecap:butt;stroke-linejoin:miter;stroke-opacity:1"
       id="path23783" />
    <path
       d="M 381.52944,565.07297 A 6.0491071,5.8035712 0 1 1 382.12048,565.17348 L 382.87946,559.41577 z"
       transform="matrix(7.1911165e-2,0.9441688,-0.7558979,-0.2718178,773.54544,350.283)"
       style="opacity:1;fill:#000000;fill-opacity:1;fill-rule:nonzero;stroke:#000000;stroke-width:0.80000001;stroke-miterlimit:4;stroke-dasharray:none;stroke-dashoffset:0;stroke-opacity:1"
       id="path24754" />
    <path
       d="M 297.00845,496.31398 L 297.00845,453.86884"
       style="fill:none;fill-rule:evenodd;stroke:#000000;stroke-width:0.80000001;stroke-linecap:butt;stroke-linejoin:miter;marker-end:url(#Arrow2Lend);stroke-miterlimit:4;stroke-dasharray:none;stroke-opacity:1"
       id="path28651" />
    <text
       x="338.92856"
       y="665.39789"
       style="font-size:16px;font-style:normal;font-weight:normal;fill:#000000;fill-opacity:1;stroke:none;stroke-width:1px;stroke-linecap:butt;stroke-linejoin:miter;stroke-opacity:1;font-family:Bitstream Vera Sans"
       id="text30593"
       xml:space="preserve"><tspan
         x="338.92856"
         y="665.39789"
         id="tspan30595">R</tspan></text>
  </g>
</svg>
