<?xml version="1.0" encoding="UTF-8" standalone="no"?>
<!-- Created with Inkscape (http://www.inkscape.org/) -->
<svg
   xmlns:svg="http://www.w3.org/2000/svg"
   xmlns="http://www.w3.org/2000/svg"
   version="1.0"
   width="744.09448"
   height="1052.3622"
   id="svg2">
  <defs
     id="defs4">
    <marker
       refX="0"
       refY="0"
       orient="auto"
       style="overflow:visible"
       id="Arrow1Mstart">
      <path
         d="M 0,0 L 5,-5 L -12.5,0 L 5,5 L 0,0 z "
         transform="matrix(0.4,0,0,0.4,4,0)"
         style="fill-rule:evenodd;stroke:#000000;stroke-width:1pt;marker-start:none"
         id="path6086" />
    </marker>
    <marker
       refX="0"
       refY="0"
       orient="auto"
       style="overflow:visible"
       id="Arrow2Mend">
      <path
         d="M 8.7185878,4.0337352 L -2.2072895,0.016013256 L 8.7185884,-4.0017078 C 6.97309,-1.6296469 6.9831476,1.6157441 8.7185878,4.0337352 z "
         transform="scale(-0.6,-0.6)"
         style="font-size:12px;fill-rule:evenodd;stroke-width:0.625;stroke-linejoin:round"
         id="path6107" />
    </marker>
  </defs>
  <g
     id="layer1">
    <path
       d="M 320.35713 699.32648 A 42.67857 39.464287 0 1 1  234.99999,699.32648 A 42.67857 39.464287 0 1 1  320.35713 699.32648 z"
       transform="matrix(2.3311706,0,0,2.5210396,-347.31611,-1010.6675)"
       style="opacity:1;fill:none;fill-opacity:1;fill-rule:nonzero;stroke:#000000;stroke-width:0.41989973;stroke-miterlimit:4;stroke-dasharray:none;stroke-dashoffset:0;stroke-opacity:1"
       id="path2160" />
    <path
       d="M 320.35713 699.32648 A 42.67857 39.464287 0 1 1  234.99999,699.32648 A 42.67857 39.464287 0 1 1  320.35713 699.32648 z"
       transform="matrix(2.2146121,0,0,2.3949876,-314.9503,-922.51606)"
       style="opacity:1;fill:none;fill-opacity:1;fill-rule:nonzero;stroke:#000000;stroke-width:0.41989973;stroke-miterlimit:4;stroke-dasharray:none;stroke-dashoffset:0;stroke-opacity:1"
       id="path4123" />
    <path
       d="M 300.5,619.07647 L 300.5,881.21933"
       style="fill:none;fill-rule:evenodd;stroke:#000000;stroke-width:1px;stroke-linecap:butt;stroke-linejoin:miter;stroke-opacity:1"
       id="path4125" />
    <path
       d="M 300.46068,751.9015 L 356.61075,676.82286"
       style="fill:none;fill-rule:evenodd;stroke:#000000;stroke-width:0.92135483;stroke-linecap:butt;stroke-linejoin:miter;stroke-miterlimit:4;stroke-dasharray:5.52812907, 5.52812907;stroke-dashoffset:0;stroke-opacity:1"
       id="path4133" />
    <path
       d="M 394.28572 676.29077 A 2.6785715 2.1428571 0 1 1  388.92858,676.29077 A 2.6785715 2.1428571 0 1 1  394.28572 676.29077 z"
       transform="matrix(0.6949617,0,0,0.8687022,86.026627,87.268652)"
       style="opacity:1;fill:#000000;fill-opacity:1;fill-rule:nonzero;stroke:#000000;stroke-width:1;stroke-miterlimit:4;stroke-dasharray:none;stroke-dashoffset:0;stroke-opacity:1"
       id="path4135" />
    <path
       d="M 324.48202,630.13145 A 18.75,3.75 0 1 1 304.0561,630.08938"
       transform="matrix(0.6431127,0,0,1.024076,98.172294,-15.242276)"
       style="opacity:1;fill:none;fill-opacity:1;fill-rule:nonzero;stroke:#000000;stroke-width:1;marker-start:url(#Arrow1Mstart);marker-end:none;stroke-miterlimit:4;stroke-dasharray:none;stroke-dashoffset:0;stroke-opacity:1"
       id="path5106" />
    <text
       x="317.5"
       y="638.43359"
       style="font-size:18px;font-style:normal;font-weight:normal;fill:#000000;fill-opacity:1;stroke:none;stroke-width:1px;stroke-linecap:butt;stroke-linejoin:miter;stroke-opacity:1;font-family:Bitstream Vera Sans"
       id="text6281"
       xml:space="preserve"><tspan
         x="317.5"
         y="638.43359"
         id="tspan6283">w</tspan></text>
    <text
       x="362.78571"
       y="671.57648"
       style="font-size:18px;font-style:normal;font-weight:normal;fill:#000000;fill-opacity:1;stroke:none;stroke-width:1px;stroke-linecap:butt;stroke-linejoin:miter;stroke-opacity:1;font-family:Bitstream Vera Sans"
       id="text6285"
       xml:space="preserve"><tspan
         x="362.78571"
         y="671.57648"
         id="tspan6287">P</tspan></text>
    <text
       x="282.85715"
       y="764.14795"
       style="font-size:18px;font-style:normal;font-weight:normal;fill:#000000;fill-opacity:1;stroke:none;stroke-width:1px;stroke-linecap:butt;stroke-linejoin:miter;stroke-opacity:1;font-family:Bitstream Vera Sans"
       id="text6289"
       xml:space="preserve"><tspan
         x="282.85715"
         y="764.14795"
         id="tspan6291">O</tspan></text>
    <path
       d="M 300,728.07647 C 310.71429,728.07647 314.28571,733.07647 314.28571,733.07647"
       style="fill:none;fill-rule:evenodd;stroke:#000000;stroke-width:1px;stroke-linecap:butt;stroke-linejoin:miter;stroke-opacity:1"
       id="path7262" />
    <text
       x="304.42859"
       y="722.50507"
       style="font-size:18px;font-style:normal;font-weight:normal;fill:#000000;fill-opacity:1;stroke:none;stroke-width:1px;stroke-linecap:butt;stroke-linejoin:miter;stroke-opacity:1;font-family:Bitstream Vera Sans"
       id="text7264"
       xml:space="preserve"><tspan
         x="304.42859"
         y="722.50507"
         id="tspan7266">theta</tspan></text>
    <path
       d="M 394.28572 676.29077 A 2.6785715 2.1428571 0 1 1  388.92858,676.29077 A 2.6785715 2.1428571 0 1 1  394.28572 676.29077 z"
       transform="matrix(0.4633078,0,0,0.5791348,119.35109,359.19868)"
       style="opacity:1;fill:#000000;fill-opacity:1;fill-rule:nonzero;stroke:#000000;stroke-width:1;stroke-miterlimit:4;stroke-dasharray:none;stroke-dashoffset:0;stroke-opacity:1"
       id="path7268" />
    <text
       x="335.35715"
       y="726.29077"
       style="font-size:18px;font-style:normal;font-weight:normal;fill:#000000;fill-opacity:1;stroke:none;stroke-width:1px;stroke-linecap:butt;stroke-linejoin:miter;stroke-opacity:1;font-family:Bitstream Vera Sans"
       id="text7294"
       xml:space="preserve"><tspan
         x="335.35715"
         y="726.29077"
         id="tspan7296">R</tspan></text>
  </g>
</svg>
